<svg xmlns="http://www.w3.org/2000/svg" version="1.1" xmlns:xlink="http://www.w3.org/1999/xlink" xmlns:svgjs="http://svgjs.dev/svgjs" width="1500" height="348" viewBox="0 0 1500 348"><g transform="matrix(1,0,0,1,-0.9090909090909918,-0.7892536493616547)"><svg viewBox="0 0 396 92" data-background-color="#ffffff" preserveAspectRatio="xMidYMid meet" height="348" width="1500" xmlns="http://www.w3.org/2000/svg" xmlns:xlink="http://www.w3.org/1999/xlink"><g id="tight-bounds" transform="matrix(1,0,0,1,0.2400000000000091,0.2086532636243419)"><svg viewBox="0 0 395.52 91.58269347275132" height="91.58269347275132" width="395.52"><g><svg viewBox="0 0 535.4306249049404 123.97901192504258" height="91.58269347275132" width="395.52"><g transform="matrix(1,0,0,1,139.91062490494036,0)"><svg viewBox="0 0 395.52 123.97901192504258" height="123.97901192504258" width="395.52"><g id="textblocktransform"><svg viewBox="0 0 395.52 123.97901192504258" height="123.97901192504258" width="395.52" id="textblock"><g><svg viewBox="0 0 395.52 123.97901192504258" height="123.97901192504258" width="395.52"><g transform="matrix(1,0,0,1,0,0)"><svg width="395.52" viewBox="0 -35.5 146.74 46" height="123.97901192504258" data-palette-color="#000000"><path d="M8.5 0L8.5-32.5 0-32.5 0-35 20.1-35 20.1-32.5 11.3-32.5 11.3 0 8.5 0ZM18.05 0L18.05-25.05 20.85-25.05 20.7-23.3Q23.05-25.5 26.85-25.5L26.85-25.5Q28.2-25.5 30.55-25.05L30.55-25.05 29.8-22.5Q28.2-23 26.45-23L26.45-23Q24.15-23 22.5-22.15 20.85-21.3 20.85-19.6L20.85-19.6 20.85 0 18.05 0ZM35.95-32.15Q35.3-32.15 34.77-32.68 34.24-33.2 34.24-33.85L34.24-33.85Q34.24-34.5 34.74-35 35.24-35.5 35.95-35.5L35.95-35.5Q36.64-35.5 37.12-35.02 37.59-34.55 37.59-33.85L37.59-33.85Q37.59-33.15 37.09-32.65 36.59-32.15 35.95-32.15L35.95-32.15ZM34.49 0L34.49-25.05 37.3-25.05 37.3 0 34.49 0ZM59.29 0L59.49-2.55Q58.29-1.05 56.47-0.25 54.64 0.55 52.79 0.55L52.79 0.55Q43.39 0.55 43.39-8.6L43.39-8.6 43.39-25.05 46.19-25.05 46.19-8.25Q46.19-5.05 47.97-3.5 49.74-1.95 52.79-1.95L52.79-1.95Q55.79-1.95 57.52-3.48 59.24-5 59.24-8.25L59.24-8.25 59.24-25.05 62.04-25.05 62.04 0 59.29 0ZM96.29 0L96.29-17.15Q96.29-20.15 94.72-21.55 93.14-22.95 90.64-22.95L90.64-22.95Q88.69-22.95 86.29-22.1L86.29-22.1 84.44-21.2Q85.29-19.5 85.29-17.3L85.29-17.3 85.29 0 82.54 0 82.54-17.15Q82.54-20.2 80.97-21.58 79.39-22.95 76.84-22.95L76.84-22.95Q75.29-22.95 73.64-22.48 71.99-22 70.64-21.25L70.64-21.25 70.64 0 67.84 0 67.84-25.05 70.64-25.05 70.39-23.45Q73.69-25.4 77.14-25.4L77.14-25.4Q78.94-25.4 80.52-24.8 82.09-24.2 83.19-23.05L83.19-23.05Q83.89-23.45 85.29-24.15L85.29-24.15Q88.24-25.5 90.99-25.5L90.99-25.5Q94.54-25.5 96.79-23.33 99.04-21.15 99.04-17.3L99.04-17.3 99.04 0 96.29 0ZM104.59 10.5L104.59-25.05 107.39-25.05 107.14-22.5Q108.49-23.95 110.31-24.7 112.14-25.45 113.94-25.45L113.94-25.45Q118.59-25.45 121.01-22.75 123.44-20.05 123.44-15.75L123.44-15.75 123.44-8.8Q123.44-4.25 120.89-1.83 118.34 0.6 114.14 0.6L114.14 0.6Q111.99 0.6 110.34 0 108.69-0.6 107.39-2.1L107.39-2.1 107.39 9.4 104.59 10.5ZM120.64-15.95Q120.64-19.6 118.71-21.25 116.79-22.9 114.14-22.9L114.14-22.9Q111.44-22.9 109.49-21.28 107.54-19.65 107.39-16.2L107.39-16.2 107.39-8.3Q107.39-5.05 109.24-3.5 111.09-1.95 114.14-1.95L114.14-1.95Q116.89-1.95 118.76-3.58 120.64-5.2 120.64-8.3L120.64-8.3 120.64-15.95ZM143.99 0L143.99-17.15Q143.99-20.2 142.21-21.58 140.44-22.95 137.64-22.95L137.64-22.95Q135.94-22.95 134.19-22.48 132.44-22 131.09-21.25L131.09-21.25 131.09 0 128.28 0 128.28-35 131.09-35 131.09-23.7Q132.34-24.55 134.09-25.03 135.84-25.5 137.74-25.5L137.74-25.5Q140.34-25.5 142.49-24.55L142.49-24.55Q144.49-23.65 145.61-21.85 146.74-20.05 146.74-17.3L146.74-17.3 146.74 0 143.99 0Z" opacity="1" transform="matrix(1,0,0,1,0,0)" fill="#000000" class="wordmark-text-0" data-fill-palette-color="primary" id="text-0"></path></svg></g></svg></g></svg></g></svg></g><g transform="matrix(1,0,0,1,0,8.017722701192497)"><svg viewBox="0 0 110.64215568572402 107.94356652265759" height="107.94356652265759" width="110.64215568572402"><g><svg xmlns="http://www.w3.org/2000/svg" xmlns:xlink="http://www.w3.org/1999/xlink" version="1.1" x="0" y="0" viewBox="9 10 82 80" style="enable-background:new 0 0 100 100;" xml:space="preserve" height="107.94356652265759" width="110.64215568572402" class="icon-icon-0" data-fill-palette-color="accent" id="icon-0"><g fill="#000000" data-fill-palette-color="accent"><path d="M81 10c-5.5 0-10 4.5-10 10 0 1.4 0.3 2.6 0.8 3.8L54.5 41.1C53.1 40.4 51.6 40 50 40c-5.5 0-10 4.5-10 10s4.5 10 10 10 10-4.5 10-10c0-2.4-0.9-4.7-2.3-6.4l16.4-16.4c1.8 1.7 4.2 2.8 6.9 2.8 5.5 0 10-4.5 10-10S86.5 10 81 10zM50 56c-3.3 0-6-2.7-6-6s2.7-6 6-6 6 2.7 6 6S53.3 56 50 56zM81 26c-3.3 0-6-2.7-6-6s2.7-6 6-6 6 2.7 6 6S84.3 26 81 26z" fill="#000000" data-fill-palette-color="accent"></path><path d="M50 30c5.5 0 10-4.5 10-10s-4.5-10-10-10-10 4.5-10 10S44.5 30 50 30zM50 14c3.3 0 6 2.7 6 6s-2.7 6-6 6-6-2.7-6-6S46.7 14 50 14z" fill="#000000" data-fill-palette-color="accent"></path><path d="M81 40c-5.5 0-10 4.5-10 10s4.5 10 10 10 10-4.5 10-10S86.5 40 81 40zM81 56c-3.3 0-6-2.7-6-6s2.7-6 6-6 6 2.7 6 6S84.3 56 81 56z" fill="#000000" data-fill-palette-color="accent"></path><path d="M19 70c-5.5 0-10 4.5-10 10s4.5 10 10 10 10-4.5 10-10S24.5 70 19 70zM19 86c-3.3 0-6-2.7-6-6s2.7-6 6-6 6 2.7 6 6S22.3 86 19 86z" fill="#000000" data-fill-palette-color="accent"></path><path d="M81 70c-4.8 0-8.9 3.4-9.8 8H59.8c-0.9-4.6-5-8-9.8-8-3.1 0-5.9 1.4-7.7 3.7L25.8 57.3c1.9-1.8 3.2-4.4 3.2-7.3 0-4.8-3.4-8.9-8-9.8V29.8c4.6-0.9 8-5 8-9.8 0-5.5-4.5-10-10-10S9 14.5 9 20c0 4.8 3.4 8.9 8 9.8v10.4c-4.6 0.9-8 5-8 9.8 0 5.5 4.5 10 10 10 1.2 0 2.3-0.2 3.3-0.6l18 18C40.1 78.3 40 79.1 40 80c0 5.5 4.5 10 10 10 4.8 0 8.9-3.4 9.8-8h11.4c0.9 4.6 5 8 9.8 8 5.5 0 10-4.5 10-10S86.5 70 81 70zM13 20c0-3.3 2.7-6 6-6s6 2.7 6 6-2.7 6-6 6S13 23.3 13 20zM13 50c0-3.3 2.7-6 6-6s6 2.7 6 6-2.7 6-6 6S13 53.3 13 50zM50 86c-3.3 0-6-2.7-6-6s2.7-6 6-6 6 2.7 6 6S53.3 86 50 86zM81 86c-3.3 0-6-2.7-6-6s2.7-6 6-6 6 2.7 6 6S84.3 86 81 86z" fill="#000000" data-fill-palette-color="accent"></path></g></svg></g></svg></g></svg></g><defs></defs></svg><rect width="395.52" height="91.58269347275132" fill="none" stroke="none" visibility="hidden"></rect></g></svg></g></svg>